<svg xmlns="http://www.w3.org/2000/svg" width="95.705" height="95.68" viewBox="0 0 95.705 95.68">
  <g id="Grupo_23" data-name="Grupo 23" transform="translate(-1117.015 747.772)">
    <path id="Trazado_24" data-name="Trazado 24" d="M1186.648-675.856a41.684,41.684,0,0,1-60.008-3.907A41.511,41.511,0,0,1,1129-735.521a41.656,41.656,0,0,1,55.752-2.95c16.714,13.572,21.646,41.075,4.275,60.245,1.988,1.965,3.991,3.926,5.973,5.908q8.381,8.382,16.749,16.779c1.13,1.133,1.276,2,.449,2.844a1.524,1.524,0,0,1-2.2.239,7.993,7.993,0,0,1-.871-.782Q1197.908-664.521,1186.648-675.856ZM1158.5-744.262a37.933,37.933,0,0,0-37.947,37.9,37.961,37.961,0,0,0,36.657,37.906,37.949,37.949,0,0,0,39.165-36.671A37.939,37.939,0,0,0,1158.5-744.262Z" fill="#7eaa60"/>
    <path id="Trazado_25" data-name="Trazado 25" d="M1260.855-629.776c0,1.059.021,2.052-.005,3.043a1.814,1.814,0,0,1-1.782,1.984,1.821,1.821,0,0,1-1.676-1.982c-.025-.991-.005-1.984-.005-3.042a15.938,15.938,0,0,1-7.356-2.7,11.186,11.186,0,0,1-4.961-7.76,4.779,4.779,0,0,1-.025-1.171,1.805,1.805,0,0,1,1.656-1.673,1.651,1.651,0,0,1,1.75,1.4c.148.691.163,1.418.374,2.086,1.066,3.381,3.716,4.95,6.882,5.89.507.15,1.04.213,1.623.328V-649.5c-.719-.143-1.476-.259-2.215-.448a13.317,13.317,0,0,1-8.726-6.168c-2.636-4.557-1.353-10.029,3.006-13.38,2.122-1.632,3.885-2.35,7.991-3.236,0-.823,0-1.671,0-2.518.008-1.6.614-2.431,1.758-2.406s1.705.813,1.711,2.455c0,.815,0,1.63,0,2.225a53.482,53.482,0,0,1,5.951,2.2,11.047,11.047,0,0,1,6.333,8.442c.147.954.365,2.021-.752,2.668a1.676,1.676,0,0,1-2.584-1.065c-.172-.684-.182-1.414-.393-2.082-1.181-3.743-4.142-5.3-7.662-6.135a8.2,8.2,0,0,0-.857-.112v15.968c1.6.486,3.194.848,4.69,1.454a12.5,12.5,0,0,1,5.731,4.458c3.363,4.845,2.164,10.987-2.835,14.526A15.9,15.9,0,0,1,1260.855-629.776Zm.053-3.631c5.36-.707,8.923-4.158,8.742-8.267-.189-4.308-4.762-7.3-8.742-7.559Zm-3.567-35.948a44.918,44.918,0,0,0-4.668,1.889c-3.578,1.932-5.115,5.828-3.517,9.078,1.629,3.314,4.642,4.668,8.185,5.266Z" transform="translate(-100.661 -55.139)" fill="#7eaa60"/>
  </g>
</svg>
