<svg xmlns="http://www.w3.org/2000/svg" width="102.837" height="96" viewBox="0 0 102.837 96">
  <g id="work-team" transform="translate(0 -10.59)">
    <path id="Trazado_18" data-name="Trazado 18" d="M106.949,27.49a16.9,16.9,0,1,0,16.9-16.9A16.915,16.915,0,0,0,106.949,27.49Zm30.24,0a13.343,13.343,0,1,1-13.343-13.348A13.358,13.358,0,0,1,137.189,27.49Z" transform="translate(-72.427)" fill="#7eaa60"/>
    <path id="Trazado_19" data-name="Trazado 19" d="M31.527,60.531A13.874,13.874,0,1,0,45.4,74.406,13.89,13.89,0,0,0,31.527,60.531Zm0,24.2a10.321,10.321,0,1,1,10.318-10.32A10.332,10.332,0,0,1,31.527,84.726Z" transform="translate(-11.956 -33.821)" fill="#7eaa60"/>
    <path id="Trazado_20" data-name="Trazado 20" d="M228.853,88.279A13.874,13.874,0,1,0,214.98,74.407,13.888,13.888,0,0,0,228.853,88.279Zm0-24.2a10.321,10.321,0,1,1-10.32,10.323A10.333,10.333,0,0,1,228.853,64.084Z" transform="translate(-145.588 -33.821)" fill="#7eaa60"/>
    <path id="Trazado_21" data-name="Trazado 21" d="M89.352,136.277H77.079a13.383,13.383,0,0,0-3.3.414,16.429,16.429,0,0,0-14.627-8.974H43.809a16.428,16.428,0,0,0-14.641,9,13.428,13.428,0,0,0-3.412-.443H13.484A13.5,13.5,0,0,0,0,149.761v34.372a1.776,1.776,0,1,0,3.553,0V149.761a9.943,9.943,0,0,1,9.932-9.931H25.757a10,10,0,0,1,2.149.24,16.392,16.392,0,0,0-.508,4.059v40a1.776,1.776,0,1,0,3.553,0v-40a12.811,12.811,0,0,1,.777-4.4c.024-.046.046-.092.066-.141a1.753,1.753,0,0,0,.066-.195,12.882,12.882,0,0,1,10.955-8.079c.029-.069,17.415-.069,17.33,0a12.882,12.882,0,0,1,10.928,8.01,1.806,1.806,0,0,0,.066.206,1.84,1.84,0,0,0,.089.189,12.8,12.8,0,0,1,.78,4.412v40a1.776,1.776,0,0,0,3.553,0v-40a16.392,16.392,0,0,0-.515-4.086,9.847,9.847,0,0,1,2.033-.213H89.352a9.943,9.943,0,0,1,9.932,9.931v34.372a1.776,1.776,0,1,0,3.553,0V149.761A13.5,13.5,0,0,0,89.352,136.277Z" transform="translate(0 -79.32)" fill="#7eaa60"/>
  </g>
</svg>
