<svg xmlns="http://www.w3.org/2000/svg" width="93.408" height="71" viewBox="0 0 93.408 71">
  <g id="archive" transform="translate(0 -36.088)">
    <path id="Trazado_14" data-name="Trazado 14" d="M93.111,63.172a1.709,1.709,0,0,0-1.412-.746H77.186V50.181a1.709,1.709,0,0,0-1.709-1.709H38.757V37.8a1.708,1.708,0,0,0-1.708-1.708H1.708A1.708,1.708,0,0,0,0,37.8V105.38a1.725,1.725,0,0,0,.01.184c0,.012,0,.023.005.035.007.052.016.1.027.156,0,.017.009.033.013.05.012.046.026.092.042.138l.018.05q.027.071.061.139c.007.013.012.026.019.039a1.716,1.716,0,0,0,.1.169h0l.007.01a1.632,1.632,0,0,0,.108.139l.041.046c.03.032.061.063.093.093l.047.043q.055.048.115.091l.034.025a1.7,1.7,0,0,0,.164.1l.021.01c.05.025.1.048.152.069l.047.018c.045.016.091.03.137.043l.055.014c.047.011.094.02.142.027l.052.008a1.787,1.787,0,0,0,.2.012H75.477A1.708,1.708,0,0,0,77.067,106L93.289,64.759A1.707,1.707,0,0,0,93.111,63.172ZM3.417,39.5H35.341V50.181a1.708,1.708,0,0,0,1.708,1.708h36.72V62.425H17.93a1.709,1.709,0,0,0-1.59,1.083L3.417,96.368Zm70.9,64.167H4.216L19.094,65.842h70.1Z" transform="translate(0 0)" fill="#7eaa60"/>
  </g>
</svg>
