<svg xmlns="http://www.w3.org/2000/svg" width="90.201" height="85" viewBox="0 0 90.201 85">
  <g id="chart-with-arrow" transform="translate(0 -9.123)">
    <path id="Trazado_22" data-name="Trazado 22" d="M90.2,21.576a1.568,1.568,0,0,0-1.568-1.569H46.671V10.691a1.569,1.569,0,0,0-3.137,0v9.316H1.569a1.569,1.569,0,1,0,0,3.137h9.315v47.4a1.569,1.569,0,0,0,1.569,1.569H41.314l-19.1,19.1a1.569,1.569,0,0,0,2.219,2.218l19.1-19.1V92.316a1.569,1.569,0,1,0,3.137,0V74.336L66,93.663a1.569,1.569,0,0,0,2.219-2.218L48.886,72.117H77.751a1.569,1.569,0,0,0,1.569-1.569v-47.4h9.313A1.568,1.568,0,0,0,90.2,21.576Zm-14.018,47.4H14.021V23.145H76.183V68.979Z" fill="#7eaa60"/>
    <path id="Trazado_23" data-name="Trazado 23" d="M96.2,96.405a1.563,1.563,0,0,0-.959-.452c-.05,0-.1-.007-.15-.007s-.1,0-.15.007a1.562,1.562,0,0,0-.959.452L76.5,113.891a1.569,1.569,0,0,0,2.218,2.219L95.093,99.733l7.634,7.634a1.568,1.568,0,0,0,2.218,0l14.808-14.807V94.9a1.569,1.569,0,1,0,3.137,0V88.773h0c0-.052,0-.1-.008-.155,0-.023-.007-.045-.01-.068s-.007-.056-.013-.084-.012-.052-.019-.078-.011-.048-.018-.071-.017-.05-.026-.075-.016-.047-.026-.07-.021-.046-.032-.069-.022-.047-.034-.07-.026-.043-.038-.065-.026-.045-.041-.066-.034-.048-.052-.071-.026-.035-.039-.052a1.526,1.526,0,0,0-.1-.115c-.037-.037-.075-.072-.115-.1l-.054-.041c-.023-.017-.045-.035-.068-.051s-.046-.028-.068-.042-.042-.026-.064-.037-.047-.023-.071-.034-.044-.022-.068-.031-.047-.018-.07-.026-.05-.019-.075-.026l-.071-.018c-.026-.007-.051-.014-.077-.019s-.055-.009-.083-.013-.046-.008-.069-.01a1.5,1.5,0,0,0-.152-.007h-6.131a1.569,1.569,0,0,0,0,3.137h2.342l-13.7,13.7Z" transform="translate(-54.364 -55.824)" fill="#7eaa60"/>
  </g>
</svg>
