<svg xmlns="http://www.w3.org/2000/svg" width="71.032" height="84" viewBox="0 0 71.032 84">
  <g id="money-exchange" transform="translate(-22.994 -0.001)">
    <path id="Trazado_15" data-name="Trazado 15" d="M126.243,79.491a1.552,1.552,0,0,0,3.1,0c0-5.326-4.86-9.734-11.115-10.366v-2.97a1.552,1.552,0,1,0-3.1,0v2.97c-6.256.633-11.117,5.04-11.117,10.366s4.86,9.732,11.117,10.365v14.663c-4.539-.571-8.013-3.6-8.013-7.243a1.552,1.552,0,1,0-3.1,0c0,5.326,4.86,9.734,11.117,10.366v2.974a1.552,1.552,0,1,0,3.1,0v-2.974c6.255-.633,11.115-5.04,11.115-10.366s-4.86-9.734-11.115-10.366V72.247C122.769,72.818,126.243,75.848,126.243,79.491Zm-19.128,0c0-3.642,3.474-6.672,8.013-7.243V86.732C110.589,86.161,107.115,83.132,107.115,79.491Zm19.128,17.784c0,3.642-3.474,6.672-8.011,7.243V90.032C122.769,90.6,126.243,93.633,126.243,97.275Z" transform="translate(-58.169 -46.383)" fill="#7eaa60"/>
    <path id="Trazado_16" data-name="Trazado 16" d="M35.578,2.65A1.552,1.552,0,1,0,33.383.455L23.45,10.388h0a1.55,1.55,0,0,0-.206,1.939c.026.04.054.079.084.117l.016.021c.02.025.043.048.064.072s.027.031.042.046h0L33.5,22.636A1.552,1.552,0,1,0,35.7,20.441l-7.405-7.4h64.18a1.552,1.552,0,0,0,0-3.1H28.294Z" transform="translate(-0.001 0)" fill="#7eaa60"/>
    <path id="Trazado_17" data-name="Trazado 17" d="M81.443,236.43a1.552,1.552,0,1,0,2.195,2.195l9.934-9.933h0a1.552,1.552,0,0,0,0-2.195L83.516,216.445a1.552,1.552,0,1,0-2.194,2.2l7.4,7.4H24.546a1.552,1.552,0,0,0,0,3.1H88.727Z" transform="translate(0 -155.078)" fill="#7eaa60"/>
  </g>
</svg>
