<svg xmlns="http://www.w3.org/2000/svg" width="28" height="28" viewBox="0 0 28 28">
  <g id="Grupo_111" data-name="Grupo 111" transform="translate(-1136 -866)">
    <path id="Trazado_68" data-name="Trazado 68" d="M14,0A14,14,0,1,1,0,14,14,14,0,0,1,14,0Z" transform="translate(1136 866)" fill="#759b4c"/>
    <path id="Trazado_69" data-name="Trazado 69" d="M9-12.762a2.986,2.986,0,0,1,2.109.879,2.884,2.884,0,0,1,.844,2.127,2.884,2.884,0,0,1-.844,2.127A2.862,2.862,0,0,1,9-6.785a2.862,2.862,0,0,1-2.109-.844,2.884,2.884,0,0,1-.844-2.127,2.884,2.884,0,0,1,.844-2.127A2.986,2.986,0,0,1,9-12.762ZM9-5.238a9.789,9.789,0,0,1,4.254.879q1.688.844,1.758,2.109V-.738H2.988V-2.25q.07-1.266,1.758-2.109A9.789,9.789,0,0,1,9-5.238Z" transform="translate(1141 887)" fill="#bcdc87"/>
  </g>
</svg>
