<svg xmlns="http://www.w3.org/2000/svg" width="74.136" height="36.549" viewBox="0 0 74.136 36.549">
  <g id="Grupo_111" data-name="Grupo 111" transform="translate(-56.364 -11)">
    <g id="Grupo_9" data-name="Grupo 9" transform="translate(-1797.501 -35.111)">
      <g id="Grupo_7" data-name="Grupo 7" transform="translate(1905.427 53.609)">
        <g id="Grupo_1" data-name="Grupo 1" transform="translate(11.042 1.248)">
          <path id="Trazado_1" data-name="Trazado 1" d="M3171.867,266.95l-1.517-.088-.075,1.281a5.8,5.8,0,0,1-.059,6.472c-.712,1.07.917,2.224,1.631,1.151A7.842,7.842,0,0,0,3171.867,266.95Z" transform="translate(-3168.213 -264.801)" fill="#759b4c"/>
          <path id="Trazado_2" data-name="Trazado 2" d="M3137.456,224.972c-.789-.046-3.377-.211-3.385-.211a1.835,1.835,0,0,0-.447.058.891.891,0,0,0-.123.05.963.963,0,0,0-.462.518,1.688,1.688,0,0,0-.118.479c-.035.6-.145,2.475-.191,3.259a1,1,0,0,0,1.991.17q.034-.6.07-1.193.037-.641.074-1.281l1.517.088.9.052A1,1,0,0,0,3137.456,224.972Z" transform="translate(-3132.729 -224.76)" fill="#97c16e"/>
        </g>
        <g id="Grupo_3" data-name="Grupo 3" transform="translate(5.029 10.658)">
          <g id="Grupo_2" data-name="Grupo 2">
            <path id="Trazado_3" data-name="Trazado 3" d="M3019.545,418.549c.772-1.033-.862-2.181-1.631-1.151a5.8,5.8,0,0,1-6.981,1.926c-.015.257-.027.474-.036.617a1.663,1.663,0,0,1-.118.479.963.963,0,0,1-.461.518.936.936,0,0,1-.123.05,2.006,2.006,0,0,1-.3.051A7.837,7.837,0,0,0,3019.545,418.549Z" transform="translate(-3009.898 -416.994)" fill="#333c2a"/>
          </g>
        </g>
        <g id="Grupo_4" data-name="Grupo 4" transform="translate(0 2.797)">
          <path id="Trazado_4" data-name="Trazado 4" d="M2920.992,265.64l1.517.088q.036-.641.074-1.281a5.805,5.805,0,0,1,.059-6.472c.713-1.07-.917-2.224-1.632-1.151A7.842,7.842,0,0,0,2920.992,265.64Z" transform="translate(-2919.035 -256.397)" fill="#759b4c"/>
          <path id="Trazado_5" data-name="Trazado 5" d="M2908.046,383.65c.789.046,3.377.211,3.384.212a1.848,1.848,0,0,0,.448-.058.922.922,0,0,0,.585-.568,1.714,1.714,0,0,0,.118-.48c.035-.6.145-2.474.19-3.259a1,1,0,0,0-1.99-.17l-.07,1.193q-.037.641-.074,1.281l-1.517-.089-.9-.053A1,1,0,0,0,2908.046,383.65Z" transform="translate(-2907.163 -372.468)" fill="#97c16e"/>
        </g>
        <g id="Grupo_6" data-name="Grupo 6" transform="translate(1.774 0)">
          <g id="Grupo_5" data-name="Grupo 5">
            <path id="Trazado_6" data-name="Trazado 6" d="M2943.613,202.49c-.772,1.033.862,2.182,1.632,1.151a5.8,5.8,0,0,1,6.98-1.927c.015-.257.028-.474.036-.617a1.719,1.719,0,0,1,.118-.48.967.967,0,0,1,.462-.518.931.931,0,0,1,.123-.05,2.014,2.014,0,0,1,.3-.051A7.837,7.837,0,0,0,2943.613,202.49Z" transform="translate(-2943.411 -199.265)" fill="#333c2a"/>
          </g>
        </g>
      </g>
      <g id="Grupo_8" data-name="Grupo 8" transform="translate(1853.865 46.111)">
        <path id="Trazado_7" data-name="Trazado 7" d="M2109.876,480.518c-4.819,0-5.446,3.466-5.446,7.642s.626,7.642,5.446,7.642c2.506,0,4.843-1.033,4.843-4.068v-.968h-2.409v.968c0,1.313-.94,1.938-2.434,1.938-2.7,0-3.036-2.174-3.036-5.511s.337-5.511,3.036-5.511c1.518,0,2.458.56,2.458,1.937v.969h2.385v-.969C2114.719,481.594,2112.382,480.518,2109.876,480.518Z" transform="translate(-2092.164 -459.253)" fill="#1a1718"/>
        <path id="Trazado_8" data-name="Trazado 8" d="M2338.21,491.653h4.578v-2.131h-4.578v-4.672h5.494V482.72h-7.928v15.068h8.1v-2.131h-5.663Z" transform="translate(-2312.186 -461.347)" fill="#1a1718"/>
        <path id="Trazado_9" data-name="Trazado 9" d="M2534.217,487.865c0-2.26-.747-5.145-5.518-5.145h-3.9v15.068h2.434V493.01h1.783l2.915,4.779h2.723l-3.18-5.252C2533.784,491.61,2534.217,489.565,2534.217,487.865Zm-5.518,2.992h-1.47v-6.006h1.47c2.7,0,3.084,1.356,3.084,3.014C2531.783,489.544,2531.4,490.771,2528.7,490.857Z" transform="translate(-2491.952 -461.347)" fill="#1a1718"/>
        <path id="Trazado_10" data-name="Trazado 10" d="M1858.66,161.105h-4.795v15.068h4.795c4.771,0,5.518-3.358,5.518-7.535S1863.431,161.105,1858.66,161.105Zm0,12.958H1856.3V163.235h2.361c2.675,0,3.084,2.11,3.084,5.4C1861.744,171.975,1861.335,173.977,1858.66,174.063Z" transform="translate(-1853.865 -155.476)" fill="#1a1718"/>
        <rect id="Rectángulo_1" data-name="Rectángulo 1" width="2.434" height="15.068" transform="translate(12.698 5.629)" fill="#1a1718"/>
        <path id="Trazado_11" data-name="Trazado 11" d="M2221.533,166.27l5.663,9.9h2.24V161.1h-2.409v9.923l-5.639-9.923H2219.1v15.068h2.434Z" transform="translate(-2201.22 -155.475)" fill="#1a1718"/>
        <path id="Trazado_12" data-name="Trazado 12" d="M2494.486,174.041h-5.662v-4h4.578v-2.132h-4.578v-4.671h5.494V161.1h-7.927v15.068h8.1Z" transform="translate(-2455.426 -155.475)" fill="#1a1718"/>
        <path id="Trazado_13" data-name="Trazado 13" d="M2726.166,61.222a14.193,14.193,0,0,0-20.213-12.866c.011-.038.022-.075.034-.112q.132-.425.263-.85c.372-1.208-1.486-1.845-1.861-.63-.211.681-.869,2.777-.979,3.128l-.017.055a1.758,1.758,0,0,0-.05.441.8.8,0,0,0,.019.129.941.941,0,0,0,.385.562,1.629,1.629,0,0,0,.431.226l.59.183,2.478.765c1.207.372,1.844-1.487.63-1.862l-.8-.249a12.111,12.111,0,1,1,5.67,23.166c-.259.017-.519.028-.781.028-.4,0-.8-.021-1.191-.059a12.109,12.109,0,0,1-4.018-1.12,12.125,12.125,0,0,1-5.7-5.69,12.056,12.056,0,0,1-.975-2.915l-.077-.432a12.139,12.139,0,0,1-.139-1.594c2.252-.939,2.678-2.959,2.678-4.642a5.339,5.339,0,0,0-1.1-3.576h0l-.015-.015-.008-.01h0c-.063-.066-.213-.214-.269-.271a0,0,0,0,0,0,0l-.012-.01-.011-.011v0a5.886,5.886,0,0,0-4.1-1.251h-3.9V66.809h2.434v-4.78H2697l.083-.014s0,.009,0,.014l.692-.09a14.148,14.148,0,0,0,1.375,5.424c.032.066.065.131.1.2-3.253.763-3.725,3.844-3.725,7.459,0,4.176.627,7.642,5.446,7.642,2.506,0,4.843-1.033,4.843-4.068v-.968H2703.4v.968c0,1.313-.939,1.938-2.434,1.938-2.7,0-3.036-2.174-3.036-5.511,0-3.109.294-5.209,2.518-5.48.028.039.056.079.085.118a3.257,3.257,0,0,1,.937,1.14l.022.023a14.323,14.323,0,0,0,6.268,3.977c.291.09.587.169.887.24l-2.4,7.517h2.506l.844-2.8h5.421l.843,2.8h2.506l-2.457-7.685A14.23,14.23,0,0,0,2726.166,61.222Zm-29.149-1.345h-1.469V53.871h1.469c2.7,0,3.084,1.357,3.084,3.014C2700.1,58.564,2699.716,59.79,2697.018,59.877Zm17.35,17.746h-4.121l.719-2.231q.493.035.994.036a14.448,14.448,0,0,0,1.51-.081l.144-.017C2713.927,76.277,2714.154,76.955,2714.368,77.623Z" transform="translate(-2652.03 -46.111)" fill="#1a1718"/>
      </g>
    </g>
  </g>
</svg>
