<svg xmlns="http://www.w3.org/2000/svg" width="164.527" height="81.112" viewBox="0 0 164.527 81.112">
  <g id="Grupo_45" data-name="Grupo 45" transform="translate(-81.865 -46.111)">
    <g id="Grupo_43" data-name="Grupo 43" transform="translate(196.294 62.75)">
      <g id="Grupo_37" data-name="Grupo 37" transform="translate(24.505 2.77)">
        <path id="Trazado_47" data-name="Trazado 47" d="M1402.094,267.058l-3.367-.2q-.083,1.42-.166,2.842a12.879,12.879,0,0,1-.131,14.363c-1.582,2.375,2.035,4.936,3.62,2.555A17.4,17.4,0,0,0,1402.094,267.058Z" transform="translate(-1393.986 -262.288)" fill="#759b4c"/>
        <path id="Trazado_48" data-name="Trazado 48" d="M1371.22,225.229c-1.751-.1-7.494-.469-7.512-.469a4.085,4.085,0,0,0-.992.129,1.991,1.991,0,0,0-.272.11,2.142,2.142,0,0,0-1.026,1.15,3.775,3.775,0,0,0-.261,1.064c-.078,1.324-.321,5.492-.423,7.232-.166,2.846,4.249,3.24,4.418.378q.075-1.323.154-2.648.083-1.423.166-2.842l3.367.2,2,.116C1373.688,229.813,1374.083,225.4,1371.22,225.229Z" transform="translate(-1360.729 -224.76)" fill="#97c16e"/>
      </g>
      <g id="Grupo_39" data-name="Grupo 39" transform="translate(11.161 23.654)">
        <g id="Grupo_38" data-name="Grupo 38">
          <path id="Trazado_49" data-name="Trazado 49" d="M1259.307,420.444c1.713-2.292-1.914-4.841-3.62-2.555a12.872,12.872,0,0,1-15.493,4.275c-.032.57-.06,1.052-.079,1.369a3.728,3.728,0,0,1-.263,1.064,2.14,2.14,0,0,1-1.024,1.15,2.051,2.051,0,0,1-.272.111,4.414,4.414,0,0,1-.658.113A17.391,17.391,0,0,0,1259.307,420.444Z" transform="translate(-1237.898 -416.994)" fill="#333c2a"/>
        </g>
      </g>
      <g id="Grupo_40" data-name="Grupo 40" transform="translate(0 6.207)">
        <path id="Trazado_50" data-name="Trazado 50" d="M1150.634,276.911l3.366.2q.081-1.422.165-2.842a12.882,12.882,0,0,1,.132-14.363c1.583-2.375-2.036-4.936-3.621-2.555A17.4,17.4,0,0,0,1150.634,276.911Z" transform="translate(-1146.289 -256.396)" fill="#759b4c"/>
        <path id="Trazado_51" data-name="Trazado 51" d="M1137.124,390c1.751.1,7.494.469,7.51.47a4.1,4.1,0,0,0,.993-.129,2.089,2.089,0,0,0,.272-.11,2.152,2.152,0,0,0,1.026-1.151,3.784,3.784,0,0,0,.262-1.065c.078-1.324.321-5.491.422-7.232.167-2.846-4.249-3.24-4.416-.378q-.077,1.325-.155,2.648-.081,1.422-.165,2.842l-3.366-.2-2.005-.117C1134.655,385.415,1134.262,389.831,1137.124,390Z" transform="translate(-1135.162 -365.184)" fill="#97c16e"/>
      </g>
      <g id="Grupo_42" data-name="Grupo 42" transform="translate(3.938 0)">
        <g id="Grupo_41" data-name="Grupo 41">
          <path id="Trazado_52" data-name="Trazado 52" d="M1171.859,206.422c-1.713,2.292,1.914,4.841,3.621,2.555a12.872,12.872,0,0,1,15.492-4.275c.034-.57.062-1.052.079-1.368a3.8,3.8,0,0,1,.263-1.065,2.143,2.143,0,0,1,1.025-1.15,1.974,1.974,0,0,1,.272-.111,4.445,4.445,0,0,1,.658-.112A17.393,17.393,0,0,0,1171.859,206.422Z" transform="translate(-1171.41 -199.265)" fill="#333c2a"/>
        </g>
      </g>
    </g>
    <g id="Grupo_44" data-name="Grupo 44" transform="translate(81.865 46.111)">
      <path id="Trazado_53" data-name="Trazado 53" d="M344.515,480.518c-10.7,0-12.085,7.692-12.085,16.959s1.39,16.959,12.085,16.959c5.561,0,10.748-2.292,10.748-9.029v-2.149h-5.348v2.149c0,2.914-2.086,4.3-5.4,4.3-5.99,0-6.738-4.825-6.738-12.23s.748-12.229,6.738-12.229c3.369,0,5.454,1.243,5.454,4.3V491.7h5.294v-2.151C355.264,482.906,350.076,480.518,344.515,480.518Z" transform="translate(-305.209 -433.324)" fill="#fff"/>
      <path id="Trazado_54" data-name="Trazado 54" d="M569.177,502.545h10.16v-4.729h-10.16V487.449H581.37V482.72H563.776v33.44h17.968v-4.73H569.177Z" transform="translate(-511.422 -435.287)" fill="#fff"/>
      <path id="Trazado_55" data-name="Trazado 55" d="M773.7,494.137c0-5.016-1.658-11.417-12.246-11.417H752.8v33.44h5.4V505.555h3.957l6.469,10.605h6.043L767.608,504.5C772.742,502.45,773.7,497.911,773.7,494.137Zm-12.246,6.641H758.2V487.449h3.262c5.988,0,6.845,3.01,6.845,6.689C768.3,497.864,767.447,500.587,761.458,500.778Z" transform="translate(-679.907 -435.287)" fill="#fff"/>
      <path id="Trazado_56" data-name="Trazado 56" d="M92.506,161.1H81.865v33.441H92.506c10.588,0,12.246-7.453,12.246-16.721S103.094,161.1,92.506,161.1Zm0,28.758H87.265v-24.03h5.241c5.936,0,6.845,4.682,6.845,11.992C99.351,185.229,98.442,189.672,92.506,189.863Z" transform="translate(-81.865 -148.612)" fill="#fff"/>
      <rect id="Rectángulo_45" data-name="Rectángulo 45" width="5.401" height="33.441" transform="translate(28.181 12.493)" fill="#fff"/>
      <path id="Trazado_57" data-name="Trazado 57" d="M452.5,172.568l12.567,21.977h4.973V161.1h-5.347v22.022L452.179,161.1H447.1v33.441h5.4Z" transform="translate(-407.421 -148.612)" fill="#fff"/>
      <path id="Trazado_58" data-name="Trazado 58" d="M732.357,189.814H719.791v-8.885h10.161V176.2H719.791V165.833h12.192V161.1H714.39v33.441h17.967Z" transform="translate(-645.673 -148.612)" fill="#fff"/>
      <path id="Trazado_59" data-name="Trazado 59" d="M994.466,79.647a31.5,31.5,0,0,0-44.857-28.554c.026-.084.05-.166.076-.249q.293-.944.583-1.886c.826-2.682-3.3-4.094-4.131-1.4-.468,1.51-1.929,6.163-2.172,6.941-.023.071-.039.121-.039.123a3.916,3.916,0,0,0-.109.979,1.8,1.8,0,0,0,.042.286,2.089,2.089,0,0,0,.856,1.247,3.619,3.619,0,0,0,.956.5l1.31.405,5.5,1.7c2.678.825,4.092-3.3,1.4-4.131l-1.786-.552a26.879,26.879,0,1,1,12.583,51.412c-.575.037-1.151.062-1.733.062-.892,0-1.774-.046-2.643-.132a26.869,26.869,0,0,1-8.918-2.485,26.907,26.907,0,0,1-12.656-12.628,26.747,26.747,0,0,1-2.164-6.469l-.171-.959a26.913,26.913,0,0,1-.31-3.537c5-2.083,5.944-6.567,5.944-10.3,0-2.641-.462-5.663-2.443-7.935l0,0-.032-.034a.185.185,0,0,0-.018-.022h0c-.14-.146-.471-.476-.6-.6a.01.01,0,0,0,0-.005l-.027-.022c-.015-.014-.024-.025-.024-.025v.005c-1.838-1.66-4.693-2.776-9.106-2.776h-8.664V92.045h5.4V81.438h3.226l.183-.03c0,.011,0,.021,0,.03l1.537-.2a31.405,31.405,0,0,0,3.051,12.037c.07.146.143.29.216.435-7.219,1.693-8.267,8.531-8.267,16.554,0,9.268,1.391,16.959,12.086,16.959,5.56,0,10.748-2.292,10.748-9.029v-2.149H943.95v2.149c0,2.914-2.085,4.3-5.4,4.3-5.989,0-6.738-4.825-6.738-12.23,0-6.9.652-11.56,5.588-12.162.063.087.125.175.189.262a7.224,7.224,0,0,1,2.08,2.53c.015.017.032.033.048.051a31.8,31.8,0,0,0,13.911,8.826c.647.2,1.3.376,1.969.533l-5.336,16.682h5.561l1.872-6.209h12.032l1.871,6.209h5.562L971.7,109.929A31.58,31.58,0,0,0,994.466,79.647Zm-64.689-2.985h-3.261V63.332h3.261c5.989,0,6.845,3.011,6.845,6.688C936.622,73.747,935.767,76.469,929.778,76.662Zm38.5,39.383h-9.144l1.6-4.95q1.093.078,2.206.079a32.068,32.068,0,0,0,3.35-.179c.107-.011.213-.025.32-.038C967.3,113.056,967.807,114.561,968.282,116.045Z" transform="translate(-829.939 -46.111)" fill="#fff"/>
    </g>
  </g>
</svg>
